<svg xmlns="http://www.w3.org/2000/svg" viewBox="0 0 78 88.45"><defs><style>.cls-1{fill:#9e9e9f;}.cls-2{fill:#231815;}.cls-3{fill:#f1bd23;}.cls-4{fill:#f7f7f7;}</style></defs><title>peelingEgg</title><g id="レイヤー_2" data-name="レイヤー 2"><g id="peelingEgg"><g id="insideEggshell"><path id="insideEggshell_fill" class="cls-1" d="M34.18,54.24s7.68-.26,7.74-.73c.42-3.67,3.28-19.74,20.37-19.72h.44C56.32,16.57,43.61,1.55,34.21,1.54,34.21,1.54,13.52,38.67,34.18,54.24Z"/><path id="insideEggshell_border" class="cls-2" d="M34.18,55.78a1.55,1.55,0,0,1-.93-.31C24.28,48.71,21.41,37,25,21.71A88.38,88.38,0,0,1,32.87.79,1.52,1.52,0,0,1,34.21,0h0C39.15,0,45,3.63,50.75,10.2A76.27,76.27,0,0,1,64.17,33.26,1.51,1.51,0,0,1,64,34.68a1.53,1.53,0,0,1-1.27.65h-.45c-6.68,0-11.77,2.62-15.12,7.78a25.87,25.87,0,0,0-3.7,10.59c-.18,1.57-1.79,1.67-5.32,1.9-1.93.12-3.81.18-3.89.19Zm.93-52.65C32.3,8.6,17.66,39.18,34.68,52.68c2.2-.08,4.62-.23,5.85-.38.79-4.89,4.4-19,20-20C54.24,16.86,43.11,4.05,35.11,3.13Z"/></g><g id="_Yolk" data-name="Yolk"><ellipse id="_Yolk_fill" data-name="Yolk_fill" class="cls-3" cx="34.07" cy="53.98" rx="25.47" ry="25.45"/><path id="_Yolk_border" data-name="
Yolk_border" class="cls-2" d="M34.07,81h0a27,27,0,0,1,0-54h0a27,27,0,0,1,27,27h0A27,27,0,0,1,34.07,81Zm0-50.9a23.91,23.91,0,1,0,0,47.82h0a23.91,23.91,0,1,0,0-47.82Z"/></g><g id="restEggshell"><path id="restEggshell_fill" class="cls-4" d="M34.18,54.24c-20.84-6,0-52.7,0-52.7C21.13,1.52,1.56,30.59,1.54,54.21S21.43,86.84,34.12,86.84s32.63-9,32.65-32.56c0-.72,0-3.23,0-4-3.59-2.14-9.7-8.26-12.94-8.27C42.78,42.05,34.93,52.38,34.18,54.24Z"/><path id="restEggshell_border" class="cls-2" d="M34.12,88.38A36.4,36.4,0,0,1,9.31,78.09C3.21,72,0,63.73,0,54.2c0-11.12,4.38-24.59,11.68-36S27.38,0,34.2,0h0a1.54,1.54,0,0,1,1.41,2.16c-.14.32-13.85,31.32-7.49,45a9.81,9.81,0,0,0,5.34,5.2,29.93,29.93,0,0,1,5.69-6.12c3.2-2.61,8.32-5.73,14.61-5.73h0c2.66,0,6,2.63,9.54,5.41A47.09,47.09,0,0,0,67.51,49a1.57,1.57,0,0,1,.75,1.25c0,.8,0,3.43,0,4,0,13.85-6.62,22-12.16,26.34A36.78,36.78,0,0,1,34.12,88.38ZM31.73,3.45C26.44,5,19.87,11.08,14.27,19.84c-7,11-11.18,23.8-11.19,34.37,0,8.81,2.82,16.12,8.4,21.71A33.19,33.19,0,0,0,34.12,85.3c12,0,31.09-8.42,31.11-31,0-.59,0-2.09,0-3.08-1.14-.76-2.43-1.77-3.78-2.83-2.55-2-6-4.76-7.65-4.76h0C43.3,43.6,36,53.73,35.6,54.82a1.53,1.53,0,0,1-1.85.9,12.92,12.92,0,0,1-8.41-7.25c-2.95-6.35-2.57-16.33,1.13-29.64A145.78,145.78,0,0,1,31.73,3.45Z"/></g><g id="peeledEggshell"><path id="peeledEggshell_fill" class="cls-4" d="M66.29,32c-15.61-7.4-32.44,20.85-32.11,22.28,2.63-2.44,11.28-5.17,18-1.45,13.51,7.8,20.28,33.86,20.26,34.12C72.49,86.91,84.66,41.69,66.29,32Z"/><path id="peeledEggshell_border" class="cls-2" d="M72.49,88.45l-.24,0A1.54,1.54,0,0,1,71,87.14a92.52,92.52,0,0,0-5.14-14.29c-4.23-9.27-9.2-15.74-14.37-18.73-6-3.32-13.9-.92-16.24,1.25a1.55,1.55,0,0,1-1.5.34,1.53,1.53,0,0,1-1-1.13c-.12-.51-.12-1.11,1.12-3.35a51.05,51.05,0,0,1,3-4.81A57.8,57.8,0,0,1,47.42,34.81c6.92-5.55,13.67-7,19.53-4.24l.06,0c19.24,10.19,7.48,54.82,7,56.71A1.54,1.54,0,0,1,72.49,88.45Zm-27.78-39a17,17,0,0,1,8.26,2c10,5.74,16.44,20.8,19.33,29.38,2.5-12.21,6.61-40.4-6.7-47.5-3.31-1.56-7-1.4-10.94.47-7.19,3.4-13.74,11.77-16.94,16.81a20.86,20.86,0,0,1,3.7-.92A21.42,21.42,0,0,1,44.71,49.43Z"/></g></g></g></svg>
