<svg xmlns="http://www.w3.org/2000/svg" width="320.77px" height="47.09" viewBox="0 0 320.77 47.09"><g id="レイヤー_2" data-name="レイヤー 2"><g id="Atelier_Hiroyuki"><path d="M25.71,35.72,21.24,24.16H7.33L2.77,35.72H0L13.16,2.07H15.7L28.58,35.72Zm-5.31-14L15.89,9.59q-.2-.66-.66-2.07c-.32-.94-.6-1.77-.85-2.49-.25.81-.51,1.64-.8,2.47s-.51,1.54-.7,2.14L8.23,21.71Z"/><path d="M39.76,33.93a11.83,11.83,0,0,0,2-.16,9.57,9.57,0,0,0,1.62-.4v2.16a9.91,9.91,0,0,1-1.76.47,11.89,11.89,0,0,1-2.23.19,6.37,6.37,0,0,1-4.8-1.76c-1.13-1.18-1.69-3.06-1.69-5.67V12.88H29.19V11.37l3.71-.84.94-5.78h1.69v6h7.71v2.16H35.53V28.67Q35.53,33.94,39.76,33.93Z"/><path d="M58.19,10.25a9.21,9.21,0,0,1,5.35,1.48,9.05,9.05,0,0,1,3.25,4.06,15.28,15.28,0,0,1,1.08,5.92v1.88H50c0,3.29.76,5.82,2.3,7.6a8.3,8.3,0,0,0,6.63,2.65A19,19,0,0,0,63,33.46a19.34,19.34,0,0,0,3.8-1.31v2.44a17.3,17.3,0,0,1-3.71,1.22,21.53,21.53,0,0,1-4.28.38q-5.6,0-8.6-3.43t-3-9.35a16.83,16.83,0,0,1,1.3-6.8,10.72,10.72,0,0,1,3.73-4.67A10.16,10.16,0,0,1,58.19,10.25Zm0,2.25a7.23,7.23,0,0,0-5.57,2.31,10.66,10.66,0,0,0-2.52,6.53h15A11.14,11.14,0,0,0,63.38,15,5.9,5.9,0,0,0,58.14,12.5Z"/><path d="M77.31,35.72H74.63V0h2.68Z"/><path d="M86.85,1.46c1.26,0,1.88.67,1.88,2s-.62,2.07-1.88,2.07-1.78-.69-1.78-2.07S85.66,1.46,86.85,1.46Zm1.32,9.26v25H85.54v-25Z"/><path d="M105.94,10.25a9.21,9.21,0,0,1,5.35,1.48,9,9,0,0,1,3.25,4.06,15.28,15.28,0,0,1,1.08,5.92v1.88H97.76q0,4.93,2.3,7.6a8.31,8.31,0,0,0,6.63,2.65,17,17,0,0,0,7.89-1.69v2.44a17.3,17.3,0,0,1-3.71,1.22,21.53,21.53,0,0,1-4.28.38q-5.58,0-8.6-3.43t-3-9.35a17,17,0,0,1,1.29-6.8A10.72,10.72,0,0,1,100,11.94,10.16,10.16,0,0,1,105.94,10.25Zm0,2.25a7.24,7.24,0,0,0-5.57,2.31,10.65,10.65,0,0,0-2.51,6.53h15A11.14,11.14,0,0,0,111.13,15,5.9,5.9,0,0,0,105.89,12.5Z"/><path d="M132.63,10.29a11.6,11.6,0,0,1,3.39.43l-.38,2.44a13.17,13.17,0,0,0-1.5-.28,13.6,13.6,0,0,0-1.6-.1,6.61,6.61,0,0,0-5.48,2.52,10.48,10.48,0,0,0-2,6.7V35.72h-2.67v-25h2.25l.28,4.7h.14a9.49,9.49,0,0,1,2.85-3.62A7.34,7.34,0,0,1,132.63,10.29Z"/><path d="M178.27,35.72h-2.73V19.36H156.41V35.72h-2.72V2.16h2.72V16.92h19.13V2.16h2.73Z"/><path d="M188.47,1.46c1.25,0,1.88.67,1.88,2s-.63,2.07-1.88,2.07-1.79-.69-1.79-2.07S187.28,1.46,188.47,1.46Zm1.31,9.26v25h-2.63v-25Z"/><path d="M208.3,10.29a11.48,11.48,0,0,1,3.38.43l-.37,2.44a12.94,12.94,0,0,0-1.51-.28,13.3,13.3,0,0,0-1.59-.1,6.61,6.61,0,0,0-5.48,2.52,10.48,10.48,0,0,0-2,6.7V35.72h-2.68v-25h2.26l.28,4.7h.14a9.49,9.49,0,0,1,2.85-3.62A7.34,7.34,0,0,1,208.3,10.29Z"/><path d="M237.49,23.22A16.68,16.68,0,0,1,236.2,30a10.21,10.21,0,0,1-3.81,4.54,11.1,11.1,0,0,1-6.14,1.62,10.77,10.77,0,0,1-6-1.6,10.24,10.24,0,0,1-3.83-4.51,16.18,16.18,0,0,1-1.34-6.86c0-4.07,1-7.26,3-9.54a10.48,10.48,0,0,1,8.29-3.43,10.76,10.76,0,0,1,6,1.62,10.09,10.09,0,0,1,3.74,4.53A17.11,17.11,0,0,1,237.49,23.22Zm-19.6,0a13.38,13.38,0,0,0,2,7.73q2,2.94,6.34,2.94T232.67,31a13.31,13.31,0,0,0,2-7.73,16.6,16.6,0,0,0-.84-5.5A7.81,7.81,0,0,0,231.19,14a7.82,7.82,0,0,0-4.79-1.36q-4.29,0-6.4,2.82T217.89,23.22Z"/><path d="M240.17,10.72H243l6,15.55q.75,2.07,1.32,3.69c.37,1.08.67,2,.89,2.89h.14c.22-.72.52-1.64.9-2.77s.81-2.38,1.31-3.76l5.83-15.6h2.87L251,40.19a15.15,15.15,0,0,1-3,5.09,6.21,6.21,0,0,1-4.7,1.81,8.06,8.06,0,0,1-1.65-.14c-.47-.09-.92-.2-1.36-.33V44.37a8.19,8.19,0,0,0,2.68.42,4.43,4.43,0,0,0,3.22-1.22,10.17,10.17,0,0,0,2.18-3.71L250,35.63Z"/><path d="M286,10.72v25h-2.21l-.38-4.28h-.14a8.76,8.76,0,0,1-3.17,3.39,9.74,9.74,0,0,1-5.34,1.36q-8.83,0-8.83-9.12V10.72h2.73V26.88q0,3.59,1.59,5.29a6.24,6.24,0,0,0,4.8,1.72q8.27,0,8.27-9.54V10.72Z"/><path d="M297,0V18.14c0,1,0,2.05-.05,3.13s-.05,2.15-.05,3.22h.05l1.39-1.72c.51-.64,1-1.21,1.48-1.71l9.49-10.34h3.2l-9.87,10.71,10.71,14.29h-3.19l-9.4-12.5L297,27.07v8.65h-2.63V0Z"/><path d="M318.89,1.46c1.25,0,1.88.67,1.88,2s-.63,2.07-1.88,2.07-1.79-.69-1.79-2.07S317.7,1.46,318.89,1.46Zm1.32,9.26v25h-2.64v-25Z"/></g></g></svg>
